<?xml version="1.0" encoding="UTF-8" standalone="no"?>
<svg
   xmlns:dc="http://purl.org/dc/elements/1.1/"
   xmlns:cc="http://creativecommons.org/ns#"
   xmlns:rdf="http://www.w3.org/1999/02/22-rdf-syntax-ns#"
   xmlns:svg="http://www.w3.org/2000/svg"
   xmlns="http://www.w3.org/2000/svg"
   xmlns:sodipodi="http://sodipodi.sourceforge.net/DTD/sodipodi-0.dtd"
   xmlns:inkscape="http://www.inkscape.org/namespaces/inkscape"
   id="e4424053-ae2a-4e11-ad67-cbdd129a9cfa"
   data-name="Layer 1"
   width="297.12845"
   height="297.02689"
   viewBox="0 0 297.12845 297.02689"
   version="1.1"
   sodipodi:docname="welcome.svg"
   inkscape:version="1.0.2 (e86c870879, 2021-01-15)">
  <metadata
     id="metadata65">
    <rdf:RDF>
      <cc:Work
         rdf:about="">
        <dc:format>image/svg+xml</dc:format>
        <dc:type
           rdf:resource="http://purl.org/dc/dcmitype/StillImage" />
        <dc:title></dc:title>
      </cc:Work>
    </rdf:RDF>
  </metadata>
  <defs
     id="defs63" />
  <sodipodi:namedview
     pagecolor="#ffffff"
     bordercolor="#666666"
     borderopacity="1"
     objecttolerance="10"
     gridtolerance="10"
     guidetolerance="10"
     inkscape:pageopacity="0"
     inkscape:pageshadow="2"
     inkscape:window-width="1920"
     inkscape:window-height="1016"
     id="namedview61"
     showgrid="false"
     inkscape:zoom="1.6409873"
     inkscape:cx="148.56422"
     inkscape:cy="241.01344"
     inkscape:window-x="0"
     inkscape:window-y="0"
     inkscape:window-maximized="1"
     inkscape:current-layer="e4424053-ae2a-4e11-ad67-cbdd129a9cfa"
     inkscape:document-rotation="0" />
  <path
     d="m 112.30813,205.42738 a 2.158,2.158 0 0 1 -2.15088,-2.15234 1.99593,1.99593 0 0 1 0.0566,-0.50293 l 11.13876,-49.06348 a 2.1641,2.1641 0 0 1 3.57422,-1.11181 l 36.92822,34.19629 a 2.16467,2.16467 0 0 1 -0.82128,3.65136 l -48.07816,14.88575 a 2.22493,2.22493 0 0 1 -0.64748,0.0972 z"
     fill="#3f3d56"
     id="path24" />
  <polygon
     points="118.634,147.156 139.141,151.233 141.465,153.383 118.269,148.767 "
     fill="#ffffff"
     id="polygon26"
     transform="translate(1.0473878,16.17738)" />
  <polygon
     points="115.745,159.859 157.405,168.144 159.73,170.303 115.38,161.478 "
     fill="#ffffff"
     id="polygon28"
     transform="translate(1.0473878,16.17738)" />
  <polygon
     points="112.499,174.188 112.864,172.569 143.864,178.738 140.535,179.767 "
     fill="#ffffff"
     id="polygon30"
     transform="translate(1.0473878,16.17738)" />
  <circle
     cx="253.04739"
     cy="199.17738"
     r="7"
     fill="#6b2aac"
     id="circle32" />
  <circle
     cx="163.04739"
     cy="21.17738"
     r="5"
     fill="#ff6584"
     id="circle34" />
  <circle
     cx="54.047386"
     cy="176.17738"
     r="5"
     fill="#ff6584"
     id="circle36" />
  <circle
     cx="229.04739"
     cy="159.17738"
     r="5"
     fill="#6b2aac"
     id="circle38" />
  <circle
     cx="77.047386"
     cy="227.17738"
     r="5"
     fill="#6b2aac"
     id="circle40" />
  <circle
     cx="235.04739"
     cy="241.17738"
     r="5"
     fill="#e6e6e6"
     id="circle42" />
  <circle
     cx="191.04739"
     cy="63.17738"
     r="5"
     fill="#cccccc"
     id="circle44" />
  <path
     d="m 2.0641178,123.15405 a 33.19778,33.19778 0 0 1 25.9660002,15.38081 c 0.78611,1.25669 1.81231,2.63769 1.26813,4.18453 a 2.75118,2.75118 0 0 1 -2.85064,1.90388 3.60537,3.60537 0 0 1 -0.37225,-6.948 c 3.63116,-1.5489 7.29467,0.84483 10.25248,2.75523 6.73958,4.353 14.1525,8.28974 22.319,8.78582 7.55589,0.45894 15.65843,-2.50367 19.86115,-9.05609 0.73527,-1.14636 -1.09032,-2.20566 -1.822,-1.065 -4.16807,6.49837 -12.5941,8.8323 -19.92043,7.82791 a 38.72628,38.72628 0 0 1 -12.46469,-4.23188 c -2.01371,-1.04505 -3.96673,-2.20352 -5.88029,-3.42131 a 37.52219,37.52219 0 0 0 -5.76745,-3.30626 c -3.363,-1.38148 -7.81507,-1.27356 -10.16418,1.90709 -2.19156,2.96734 -0.49786,7.90746 3.16765,8.74168 a 4.953,4.953 0 0 0 5.80209,-5.89243 c -0.36573,-1.7474 -1.68153,-3.45741 -2.7,-4.88568 A 35.31012,35.31012 0 0 0 2.0640078,121.04403 c -1.35727005,-0.0671 -1.35373005,2.043 0,2.11 z"
     fill="#cccccc"
     id="path46" />
  <path
     d="m 297.77571,187.02491 a 26.40376,26.40376 0 0 1 -12.07126,-20.747 c -0.0588,-1.17748 -0.2362,-2.53437 0.74132,-3.3977 a 2.18814,2.18814 0 0 1 2.71775,-0.21725 2.86753,2.86753 0 0 1 -2.4347,4.96965 c -3.12222,-0.33183 -4.73864,-3.41434 -6.0523,-5.88762 -2.99326,-5.6356 -6.61553,-11.24307 -12.09486,-14.75316 -5.06963,-3.2476 -11.8452,-4.33084 -17.30385,-1.40929 -0.955,0.51112 -0.0978,1.95445 0.85252,1.44584 5.41365,-2.89743 12.17018,-1.25218 16.86895,2.28524 a 30.80089,30.80089 0 0 1 7.01628,7.77067 c 0.99342,1.50634 1.90073,3.06794 2.75764,4.65543 a 29.84368,29.84368 0 0 0 2.72387,4.5318 c 1.80013,2.263 4.93387,3.91381 7.79822,2.61544 a 4.60646,4.60646 0 0 0 1.18859,-7.29892 3.93937,3.93937 0 0 0 -6.31359,1.84322 11.49183,11.49183 0 0 0 -0.0187,4.43969 28.08383,28.08383 0 0 0 12.80626,20.61941 c 0.91659,0.57274 1.7321,-0.89415 0.8179,-1.4654 z"
     fill="#cccccc"
     id="path48" />
  <path
     d="m 125.23874,48.583 a 26.40376,26.40376 0 0 1 -20.652,-12.2331 c -0.62523,-0.9995 -1.44142,-2.09788 -1.0086,-3.32815 a 2.18812,2.18812 0 0 1 2.26725,-1.51424 2.86752,2.86752 0 0 1 0.29607,5.52607 c -2.888,1.23192 -5.8018,-0.67193 -8.154292,-2.19136 -5.36031,-3.46217 -11.25616,-6.59322 -17.7514,-6.98778 -6.00956,-0.365 -12.4539,1.99129 -15.79651,7.20274 -0.58481,0.91176 0.86718,1.75427 1.44908,0.847 3.31506,-5.16846 10.01668,-7.02475 15.84366,-6.2259 a 30.80076,30.80076 0 0 1 9.91376,3.36581 c 1.6016,0.83118 3.15493,1.75256 4.67687,2.72113 a 29.8442,29.8442 0 0 0 4.587132,2.62963 c 2.6748,1.09875 6.2157,1.01292 8.08405,-1.51681 a 4.60645,4.60645 0 0 0 -2.51937,-6.95267 3.93937,3.93937 0 0 0 -4.61468,4.68653 11.4916,11.4916 0 0 0 2.14745,3.88582 28.08381,28.08381 0 0 0 21.23162,11.76345 c 1.0795,0.0534 1.07668,-1.62493 0,-1.67819 z"
     fill="#cccccc"
     id="path50" />
  <rect
     x="124.04739"
     y="101.74881"
     width="5"
     height="16.42857"
     fill="#cccccc"
     id="rect52" />
  <rect
     x="24.840664"
     y="-97.925972"
     width="4.9142098"
     height="16.1467"
     transform="rotate(135)"
     fill="#b3b3b3"
     id="rect54" />
  <rect
     x="-226.66"
     y="45.239056"
     width="4.9142098"
     height="16.1467"
     transform="rotate(-135)"
     fill="#b3b3b3"
     id="rect56" />
  <rect
     x="-226.65999"
     y="-155.57927"
     width="4.9142098"
     height="16.1467"
     transform="rotate(-135)"
     fill="#ff6584"
     id="rect58" />
</svg>
